<svg xmlns="http://www.w3.org/2000/svg" viewBox="0 0 175.75 82.44"><defs><style>.cls-1{fill:#f5ea42;}</style></defs><title>logo</title><g id="Camada_2" data-name="Camada 2"><g id="Camada_1-2" data-name="Camada 1"><path class="cls-1" d="M1.91,28.13v9.29h30a8.81,8.81,0,0,0,5.78-2.05,9.62,9.62,0,0,0,2.6-3.48,10.16,10.16,0,0,0,.91-4.15A7.29,7.29,0,0,0,39.6,23l-7.26-8.66a2.55,2.55,0,0,1-.56-1A1.55,1.55,0,0,1,32,12.08h0a1.83,1.83,0,0,1,.84-.69,3.28,3.28,0,0,1,1.33-.25H56V37.42h9.4V11.14H80.31V1.9H30a9.1,9.1,0,0,0-8.54,5.43,9.71,9.71,0,0,0-.88,4h0a8.27,8.27,0,0,0,1.87,5.34L29,24.55c.79.94,1.12,1.73.92,2.4s-1,1.18-2.32,1.18H1.91ZM0,38.37V26.23H27.63c.38,0,.47.3.5.18s-.19-.22-.55-.65L21,17.9a10.07,10.07,0,0,1-2.32-6.55h0a11.67,11.67,0,0,1,1-4.79,11.31,11.31,0,0,1,3-4A11.08,11.08,0,0,1,30,0H82.21V13H67.26V39.32H54.07V13h-20a2.17,2.17,0,0,0-.38,0l0,.07,7.27,8.66a9.21,9.21,0,0,1,2,5.95A12.09,12.09,0,0,1,42,32.66a11.7,11.7,0,0,1-3.11,4.16,10.69,10.69,0,0,1-7,2.5H0v-1Z"/><path class="cls-1" d="M52.05,44.29l-9,37.42-.17.73h-13l-.17-.75L26.17,65.62,22.6,81.69l-.16.75h-13l-.18-.73-9-37.42L0,43.12H13.08l.16.75,3.52,15.88,3.52-15.88.16-.74H31.77l.17.74,3.52,15.88L39,43.87l.17-.75H52.33l-.28,1.17ZM41.41,80.54,49.93,45H40.66l-4.27,19.3-.93,4.17-.92-4.17L30.26,45H22l-4.28,19.3-.92,4.16-.92-4.16L11.56,45H2.4l8.53,35.52h10l4.32-19.49.93-4.17.92,4.17,4.32,19.49Z"/><path class="cls-1" d="M80.62,38.15l9-37.4L89.78,0h.75l21,0h.74l.18.73,9,37.42.28,1.17H108.36l-.18-.73L107,33.83H94.86l-1.14,4.76-.17.73H80.34l.28-1.17ZM91.27,1.91,82.74,37.42h9.32l1.14-4.75.18-.73h15.15l.18.73,1.14,4.75h9.44L110.76,1.89l-19.49,0ZM101,11.7,97.23,24.27h7.45L101,11.7ZM95.05,25l5-16.84L101,5l.91,3.07,5,16.84.36,1.22H94.69L95.05,25Z"/><path class="cls-1" d="M125.28,1.9l0,35.52h9.38V27.18c0-1.55.38-2.48,1.17-2.79s1.69.1,2.79,1.2l9.64,9.63c2.2,2.2,2.34,2.2,4.87,2.2h20.74V28.13H153.64a1.8,1.8,0,0,1-1.75-.71l0,0-2.29-2.3-1-1,1.28-.55h0l.51-.23L151,23a24.13,24.13,0,0,0,3-1.69,10.43,10.43,0,0,0,4.15-6,11.06,11.06,0,0,0-.12-6,10.36,10.36,0,0,0-3.32-5,11.78,11.78,0,0,0-7.58-2.5l-21.82,0Zm-1.91,36.47,0-37.42V0h1L147.1,0A13.61,13.61,0,0,1,155.88,3a12.25,12.25,0,0,1,3.92,5.91,12.83,12.83,0,0,1,.15,7,12.38,12.38,0,0,1-4.89,7,24.84,24.84,0,0,1-3.19,1.81l1.34,1.35,0,0c.13.12.15.15.41.15h22.11V39.32H153.11c-3.28,0-3.47,0-6.21-2.74l-9.64-9.64c-.51-.52-.75-.78-.76-.78s0,.34,0,1V39.32H123.37v-1Zm13.17-27.08v7.48h8a3.84,3.84,0,0,0,3.7-2.32,4.06,4.06,0,0,0,.34-1.56,4,4,0,0,0-.3-1.53,3.75,3.75,0,0,0-3.73-2.07Zm-1.9,8.43V9.39h9.87A5.54,5.54,0,0,1,150,12.61a5.85,5.85,0,0,1,.46,2.29,6.18,6.18,0,0,1-.48,2.29,5.69,5.69,0,0,1-5.45,3.48h-9.86v-1Z"/><path class="cls-1" d="M149.24,69.35h.28q-.12-.18-.33-.45L142.58,61a10.11,10.11,0,0,1-2.31-6.55h0a11.55,11.55,0,0,1,1-4.79,11,11,0,0,1,10.26-6.56h24.17v13h-20c-.52,0-.69-.11-.72-.07s.21-.06.4.17l7.26,8.66a9.17,9.17,0,0,1,2,6,12.18,12.18,0,0,1-1.07,4.92A11.68,11.68,0,0,1,160.49,80a10.66,10.66,0,0,1-7,2.49H123.28c-3.27,0-3.46,0-6.21-2.74l-9.63-9.64c-.52-.51-.76-.78-.77-.78s0,.34,0,1V82.44H93.55v-1l0-37.42v-1h.94l22.77,0a13.57,13.57,0,0,1,8.77,2.92A12.2,12.2,0,0,1,130,52a12.83,12.83,0,0,1,.15,7,12.37,12.37,0,0,1-4.9,7h0l-.55.36-.62.38c-.64.37-1.36.74-2,1.07l1.34,1.34,0,0c.12.13.15.15.4.15ZM150.53,71a3.28,3.28,0,0,1-1.29.22H123.81a1.79,1.79,0,0,1-1.74-.71l0,0-2.3-2.31-1-1,1.28-.55a31.33,31.33,0,0,0,3.06-1.54l.56-.34.47-.31h0a10.55,10.55,0,0,0,4.16-6,11,11,0,0,0-.13-6,10.34,10.34,0,0,0-3.32-5,11.71,11.71,0,0,0-7.57-2.49L95.46,45l0,35.52h9.37V70.3c0-1.55.38-2.48,1.17-2.79s1.7.1,2.8,1.2l9.63,9.64c2.2,2.19,2.35,2.19,4.87,2.19H153.5a8.81,8.81,0,0,0,5.78-2.05,9.74,9.74,0,0,0,2.6-3.48,10.27,10.27,0,0,0,.9-4.15,7.36,7.36,0,0,0-1.57-4.74l-7.27-8.65c-.73-.88-1-1.64-.59-2.32s1.1-.89,2.37-.89h18.13V45H151.58a9.18,9.18,0,0,0-6,2.11A9.29,9.29,0,0,0,143,50.46a9.86,9.86,0,0,0-.88,4h0A8.25,8.25,0,0,0,144,59.81l6.6,7.87a3.93,3.93,0,0,1,.79,1.32,1.67,1.67,0,0,1,0,1.19,1.61,1.61,0,0,1-.88.84ZM106.71,54.41v7.48h8a3.85,3.85,0,0,0,3.7-2.32,4.24,4.24,0,0,0,.33-1.56,3.56,3.56,0,0,0-.3-1.52,3.74,3.74,0,0,0-3.73-2.08Zm-1.9,8.43V52.52h9.87A5.41,5.41,0,0,1,120.6,58a6,6,0,0,1-.48,2.29,5.69,5.69,0,0,1-5.44,3.48h-9.87v-.95Z"/><path class="cls-1" d="M50.64,81.27l9-37.4.18-.73H82.28l.17.72,9,37.42.28,1.17H78.38l-.17-.73L77.07,77H64.89l-1.14,4.75-.18.73H50.36l.28-1.17ZM61.29,45,52.76,80.54h9.32l1.14-4.75.18-.73H78.55l.18.73,1.14,4.75h9.44L80.79,45ZM71,54.83,67.25,67.39H74.7L71,54.83Zm-5.9,13.24,5-16.84L71,48.17l.9,3.06,5,16.84.36,1.22H64.72l.36-1.22Z"/></g></g></svg>